# xmcd
#
# Track frame offsets:
#	150
#	16328
#	32507
#	48685
#
# Disc length: 863 seconds
#
# Revision: 0
# Processed by: cddbd v1.5.2PL0 Copyright (c) Steve Scherf et al.
# Submitted via: audiograbber 1.83.01
#
DISCID=29035d04
DTITLE=LaVive - Maxi CD - No time for sleeping (LC 14216)
DYEAR=2010
DGENRE=Popstar
TTITLE0=No time for sleeping (Sarah, Meike, Julia, Esra)
TTITLE1=No time for sleeping (Sarah, Meike, Julia, Katrin)
TTITLE2=No time for sleeping (Sarah, Meike, Julia, Pascaline)
TTITLE3=No time for sleeping (Sarah, Meike, Julia, Yonca)
EXTD=
EXTT0=
EXTT1=
EXTT2=
EXTT3=
PLAYORDER=
